<svg id="Layer_1" data-name="Layer 1" xmlns="http://www.w3.org/2000/svg" xmlns:xlink="http://www.w3.org/1999/xlink" viewBox="0 0 400 400"><defs><style>.cls-1{fill:none;}.cls-2{clip-path:url(#clip-path);}.cls-3{fill:#ffffff;}.cls-4{clip-path:url(#clip-path-4);}</style><clipPath id="clip-path"><rect class="cls-1" width="400" height="400"/></clipPath><clipPath id="clip-path-4"><rect class="cls-1" x="224.65" y="92.75" width="61.5" height="87"/></clipPath></defs><g class="cls-2"><g class="cls-2"><path class="cls-3" d="M186.65,185.3c0-19.7-12.3-30.55-33.05-30.55h-20V216.7c5.75.45,9.25.75,17.8.75,21.9.45,35.25-12.7,35.25-32.15m3.4,100.15A367.77,367.77,0,0,1,153,229H133.9v41.2c0,15.3,3.5,18.5,10.2,19.45l12.8,1.75v7.15c-6.1,0-20.45-.75-31.6-.75s-23.15.45-29.8.75v-7.15l9.25-1.75c6.4-1.2,10.1-4.15,10.1-19.45v-97.6c-.3-15.65-4-18.35-10.45-19.55l-9.25-1.65v-7.2H121.1c9.9,0,22.4-.75,37.05-.75,27.8,0,49.55,12.8,49.55,40.45A45.29,45.29,0,0,1,173,226,294.62,294.62,0,0,0,210,278.3a36.22,36.22,0,0,0,24.15,13.05v6.4a31.62,31.62,0,0,1-11.4,1.95,42.11,42.11,0,0,1-32.7-14.25"/></g><g class="cls-2"><g class="cls-4"><path class="cls-3" d="M283.3,111.45c-4.35-10.55-13.85-18.2-28.1-18.2a29.47,29.47,0,0,0-21.9,9c-8.2,8.3-8.1,17.7-8.1,34s-.1,25.65,8.1,33.95a30.15,30.15,0,0,0,21.9,9.05c8.8,0,16.65-2.85,23-9.6,5.5-6,7.5-13,7.5-23.9V132.8H256.8v10.95H273v4.75c0,5.45-1.15,9.75-4.2,13.3a17.64,17.64,0,0,1-13.6,5.95,16.56,16.56,0,0,1-12.3-5.1c-4.1-4.5-5.05-9.4-5.05-26.35s1-21.75,5.05-26.25a16.76,16.76,0,0,1,12.3-5.25c8.15,0,13.85,4.15,16.6,11.35Z"/></g></g></g></svg>